<svg xmlns="http://www.w3.org/2000/svg">
    <symbol id="show-password-icon" viewBox="0 0 24 24" fill="none" xmlns="http://www.w3.org/2000/svg">
        <path opacity="0.4" d="M21.2496 9.15004C20.7596 8.37004 20.1996 7.67004 19.6196 7.04004L15.8496 10.81C15.9696 11.18 16.0396 11.58 16.0396 12C16.0396 14.24 14.2296 16.04 11.9996 16.04C11.5796 16.04 11.1796 15.97 10.8096 15.85L7.34961 19.31C8.80961 20.13 10.3896 20.56 11.9996 20.56C13.7796 20.56 15.5096 20.04 17.0896 19.07C18.6696 18.09 20.0896 16.66 21.2496 14.84C22.2496 13.28 22.2496 10.72 21.2496 9.15004Z" fill="#959595"/>
        <path d="M14.0196 9.98014L9.97965 14.0201C9.46965 13.5001 9.13965 12.7801 9.13965 12.0001C9.13965 10.4301 10.4196 9.14014 11.9996 9.14014C12.7796 9.14014 13.4996 9.47014 14.0196 9.98014Z" fill="#959595"/>
        <path opacity="0.4" d="M18.25 5.75018L14.86 9.14018C14.13 8.40018 13.12 7.96018 12 7.96018C9.76 7.96018 7.96 9.77018 7.96 12.0002C7.96 13.1202 8.41 14.1302 9.14 14.8602L5.76 18.2502H5.75C4.64 17.3502 3.62 16.2002 2.75 14.8402C1.75 13.2702 1.75 10.7202 2.75 9.15018C3.91 7.33017 5.33 5.90018 6.91 4.92018C8.49 3.96018 10.22 3.43018 12 3.43018C14.23 3.43018 16.39 4.25018 18.25 5.75018Z" fill="#959595"/>
        <path d="M14.8601 12.0001C14.8601 13.5701 13.5801 14.8601 12.0001 14.8601C11.9401 14.8601 11.8901 14.8601 11.8301 14.8401L14.8401 11.8301C14.8601 11.8901 14.8601 11.9401 14.8601 12.0001Z" fill="#959595"/>
        <path d="M21.7699 2.22988C21.4699 1.92988 20.9799 1.92988 20.6799 2.22988L2.22988 20.6899C1.92988 20.9899 1.92988 21.4799 2.22988 21.7799C2.37988 21.9199 2.56988 21.9999 2.76988 21.9999C2.96988 21.9999 3.15988 21.9199 3.30988 21.7699L21.7699 3.30988C22.0799 3.00988 22.0799 2.52988 21.7699 2.22988Z" fill="#959595"/>
    </symbol>
    <symbol id="hide-password-icon" viewBox="0 0 24 24" fill="none" xmlns="http://www.w3.org/2000/svg">
        <path opacity="0.4" d="M21.25 9.14969C18.94 5.51969 15.56 3.42969 12 3.42969C10.22 3.42969 8.49 3.94969 6.91 4.91969C5.33 5.89969 3.91 7.32969 2.75 9.14969C1.75 10.7197 1.75 13.2697 2.75 14.8397C5.06 18.4797 8.44 20.5597 12 20.5597C13.78 20.5597 15.51 20.0397 17.09 19.0697C18.67 18.0897 20.09 16.6597 21.25 14.8397C22.25 13.2797 22.25 10.7197 21.25 9.14969ZM12 16.0397C9.76 16.0397 7.96 14.2297 7.96 11.9997C7.96 9.76969 9.76 7.95969 12 7.95969C14.24 7.95969 16.04 9.76969 16.04 11.9997C16.04 14.2297 14.24 16.0397 12 16.0397Z" fill="#959595"/>
        <path d="M11.9999 9.14062C10.4299 9.14062 9.1499 10.4206 9.1499 12.0006C9.1499 13.5706 10.4299 14.8506 11.9999 14.8506C13.5699 14.8506 14.8599 13.5706 14.8599 12.0006C14.8599 10.4306 13.5699 9.14062 11.9999 9.14062Z" fill="#959595"/>
    </symbol>
</svg>